<?xml version="1.0" encoding="utf-8"?>
<!-- Generator: Adobe Illustrator 22.0.1, SVG Export Plug-In . SVG Version: 6.00 Build 0)  -->
<svg version="1.1" id="Layer_1" xmlns="http://www.w3.org/2000/svg" xmlns:xlink="http://www.w3.org/1999/xlink" x="0px" y="0px"
	 viewBox="0 0 192.8 42" style="enable-background:new 0 0 192.8 42;" xml:space="preserve">
<style type="text/css">
	.st0{fill:#6B20CE;}
</style>
<title>FS_Logo_consumer200</title>
<g>
	<path class="st0" d="M42,14.7h-8.5c-0.4,0-0.7-0.2-0.9-0.6l-2.6-8c-0.4-1.2-1.5-2-2.8-2c-1.3,0-2.4,0.8-2.8,2l-2.6,8
		c-0.1,0.4-0.5,0.6-0.9,0.6h-8.5c-1.3,0-2.4,0.8-2.8,2.1c-0.4,1.2,0,2.5,1.1,3.3l6.1,4.4c0.8,0.6,1.1,1.6,0.8,2.5l-2.3,7
		c-0.4,1.3,0,2.6,1,3.4c0.8,0.6,1.9,0.7,3,0.3c0.6-0.2,1-0.5,1.4-0.7c1-0.6,2.3-1.6,3.2-2.4c0.4-0.4,0.5-1,0.2-1.5
		c-0.4-0.4-1-0.5-1.5-0.2c-1.1,0.9-2.3,1.7-3,2.2c-0.4,0.2-0.7,0.4-1,0.5c-0.8,0.3-1,0.1-1.1,0c-0.3-0.2-0.5-0.6-0.3-1.1l2.3-7
		c0.6-1.8-0.1-3.7-1.6-4.8L12,18.4c-0.5-0.4-0.4-0.9-0.3-1c0-0.1,0.2-0.6,0.9-0.6H21c1.3,0,2.4-0.8,2.8-2.1l2.6-8
		c0.2-0.5,0.7-0.6,0.8-0.6c0.2,0,0.7,0,0.9,0.6l2.6,8c0.4,1.2,1.5,2.1,2.8,2.1H42c0.6,0,0.8,0.5,0.9,0.6c0,0.1,0.2,0.6-0.3,1
		l-6.1,4.4c-1.5,1.1-2.1,3-1.6,4.8l2.3,7c0.2,0.6-0.1,0.9-0.3,1.1c-0.2,0.2-0.5,0.2-1.2,0l-0.2-0.1c-4.9-2-8-5.4-8-5.4c0,0,0,0,0,0
		c-1.2-1.2-2.2-2.4-2.9-3.6c-0.6-0.9-1-1.8-1.3-2.6c-0.6-1.7-0.6-2.8,0.1-3.5c0.3-0.3,1-0.5,1.4-0.4c0.7,0.2,1.2,0.8,1.5,1.8
		c0.1,0.4,0.5,0.7,1,0.7c0.5,0,0.9-0.3,1-0.7c0.2-0.7,0.8-1.8,1.9-1.8c0,0,0,0,0,0c0.4,0,0.8,0.2,1.1,0.5c0.6,0.7,0.6,1.8,0,3.5
		c-0.4,1.1-1.2,2.3-2,3.2c-0.4,0.4-0.4,1.1,0,1.5c0.4,0.4,1.1,0.4,1.5,0c1-1,1.9-2.5,2.4-3.9c0.9-2.4,0.8-4.2-0.3-5.5
		c-0.7-0.8-1.7-1.3-2.7-1.3c-1.1,0-2.2,0.5-2.9,1.4c-0.6-0.8-1.4-1.1-2-1.3c-1.2-0.3-2.7,0.1-3.5,1c-1.8,2-0.8,4.7-0.5,5.6
		c0.4,1,0.9,2,1.5,3c0.8,1.3,1.9,2.6,3.2,4c0.3,0.3,3.5,3.7,8.6,5.9c0,0,0,0,0,0c0.4,0.2,1.1,0.5,1.9,0.5c0.5,0,1.1-0.1,1.7-0.6
		c1-0.8,1.4-2.1,1-3.3l-2.3-7c-0.3-0.9,0-1.9,0.8-2.5l6.1-4.4c1.1-0.8,1.5-2.1,1.1-3.3C44.5,15.5,43.4,14.7,42,14.7z"/>
	<path class="st0" d="M62.9,16.9c0.6,0,1.1-0.5,1.1-1.1c0-0.6-0.5-1.1-1.1-1.1h-8.8c-0.9,0-1.3,0.5-1.3,1.3v14.1
		c0,0.7,0.6,1.2,1.3,1.2c0.7,0,1.2-0.6,1.2-1.2v-6.2h7.4c0.6,0,1.1-0.5,1.1-1.1c0-0.6-0.5-1.1-1.1-1.1h-7.4v-4.8H62.9z"/>
	<path class="st0" d="M69.3,14.6c-0.7,0-1.3,0.6-1.3,1.2v14.3c0,0.7,0.6,1.2,1.3,1.2c0.7,0,1.2-0.6,1.2-1.2V15.8
		C70.5,15.1,70,14.6,69.3,14.6z"/>
	<path class="st0" d="M88.3,14.6c-0.5,0-1,0.3-1.2,0.8l-5,13.1l-5-13.1c-0.2-0.5-0.7-0.8-1.2-0.8c-0.7,0-1.3,0.6-1.3,1.3
		c0,0.2,0,0.3,0.1,0.5L80,29.9c0.3,0.8,1.1,1.4,2,1.4c0.9,0,1.7-0.6,2.1-1.4l5.4-13.6c0.1-0.1,0.1-0.3,0.1-0.5
		C89.6,15.2,89,14.6,88.3,14.6z"/>
	<path class="st0" d="M103.2,16.9c0.6,0,1.1-0.5,1.1-1.1c0-0.6-0.5-1.1-1.1-1.1h-8.8c-0.9,0-1.3,0.5-1.3,1.3v13.9
		c0,0.8,0.5,1.3,1.3,1.3h8.8c0.6,0,1.1-0.5,1.1-1.1c0-0.6-0.5-1.1-1.1-1.1h-7.6v-5.1h7.4c0.6,0,1.1-0.5,1.1-1.1
		c0-0.6-0.5-1.1-1.1-1.1h-7.4v-4.8H103.2z"/>
	<path class="st0" d="M114.7,21.5c-2.1-0.5-3.8-1-3.8-2.5c0-1.4,1.3-2.3,3.3-2.3c1.4,0,2.8,0.4,4,1.3c0.2,0.1,0.4,0.2,0.7,0.2
		c0.6,0,1.2-0.5,1.2-1.2c0-0.4-0.2-0.7-0.5-0.9c-1.5-1.1-3.1-1.6-5.1-1.6c-3.6,0-6,2-6,4.7c0,3.4,3.1,4.1,5.7,4.8c2.1,0.5,4,1,4,2.8
		c0,1.2-0.9,2.5-3.6,2.5c-1.8,0-3.3-0.7-4.4-1.6c-0.2-0.1-0.5-0.2-0.7-0.2c-0.6,0-1.2,0.5-1.2,1.2c0,0.4,0.2,0.7,0.5,0.9
		c1.4,1.2,3.3,1.9,5.7,1.9c4.5,0,6.2-2.4,6.2-5C120.5,23,117.4,22.2,114.7,21.5z"/>
	<path class="st0" d="M134.8,14.7h-10.8c-0.6,0-1.1,0.5-1.1,1.1c0,0.6,0.5,1.1,1.1,1.1h4.2v13.2c0,0.7,0.5,1.2,1.2,1.2
		c0.7,0,1.2-0.6,1.2-1.2V16.9h4.1c0.6,0,1.1-0.5,1.1-1.1C135.9,15.2,135.4,14.7,134.8,14.7z"/>
	<path class="st0" d="M177.4,21.5c-2.1-0.5-3.8-1-3.8-2.5c0-1.4,1.3-2.3,3.3-2.3c1.4,0,2.8,0.4,4,1.3c0.2,0.1,0.4,0.2,0.7,0.2
		c0.6,0,1.2-0.5,1.2-1.2c0-0.4-0.2-0.7-0.5-0.9c-1.5-1.1-3.1-1.6-5.1-1.6c-3.6,0-6,2-6,4.7c0,3.4,3.1,4.1,5.7,4.8c2.1,0.5,4,1,4,2.8
		c0,1.2-0.9,2.5-3.6,2.5c-1.8,0-3.3-0.7-4.4-1.6c-0.2-0.1-0.5-0.2-0.7-0.2c-0.6,0-1.2,0.5-1.2,1.2c0,0.4,0.2,0.7,0.5,0.9
		c1.4,1.2,3.3,1.9,5.7,1.9c4.5,0,6.2-2.4,6.2-5C183.2,23,180,22.2,177.4,21.5z"/>
	<path class="st0" d="M146.1,16c-0.3-0.8-1.1-1.4-2-1.4c-0.9,0-1.7,0.6-2,1.4l-5.4,13.6c0,0.1-0.1,0.3-0.1,0.5
		c0,0.7,0.6,1.3,1.3,1.3c0.5,0,1-0.3,1.2-0.8l1-2.7l0.8-2.2L141,25h6.1l0.2,0.5l0.8,2.2l1,2.7c0.1,0.4,0.6,0.8,1.2,0.8
		c0.7,0,1.3-0.6,1.3-1.3c0-0.2,0-0.3-0.1-0.5L146.1,16z M141.8,22.9l2.2-6l2.3,6H141.8z"/>
	<path class="st0" d="M167.3,19.9c0-2.9-2.5-5.2-5.5-5.2h-4.3l0,0h-1c-0.9,0-1.3,0.5-1.3,1.3v14.1c0,0.7,0.6,1.2,1.3,1.2
		c0.7,0,1.2-0.6,1.2-1.2v-4.9h3.5l3.3,5.6c0.2,0.3,0.6,0.6,1,0.6c0.7,0,1.2-0.5,1.2-1.1c0-0.4-0.1-0.6-0.2-0.8l-2.8-4.7
		C165.8,24.1,167.3,22.2,167.3,19.9z M161.8,22.7h-4.2v-0.1v-5.6h4.2c1.7,0,3.1,1.3,3.1,2.8C164.9,21.5,163.5,22.7,161.8,22.7z"/>
</g>
</svg>
